<?xml version="1.0" encoding="utf-8"?>
<!-- Generator: Adobe Illustrator 14.0.0, SVG Export Plug-In . SVG Version: 6.00 Build 43363)  -->
<!DOCTYPE svg PUBLIC "-//W3C//DTD SVG 1.1//EN" "http://www.w3.org/Graphics/SVG/1.1/DTD/svg11.dtd">
<svg version="1.1" id="Layer_1" xmlns="http://www.w3.org/2000/svg" xmlns:xlink="http://www.w3.org/1999/xlink" x="0px" y="0px"
	 width="250px" height="102px" viewBox="0 0 250 102" enable-background="new 0 0 250 102" xml:space="preserve">
<g>
	<path fill="#0059AB" d="M208.673,49.313v13.49l0.028,0.502l-0.521-0.033h-6.538l-0.516,0.033l0.028-0.502v-12.3
		c0-3.59-2.063-5.301-4.612-5.301c-2.541,0-4.599,1.711-4.599,5.301v12.3l0.023,0.502l-0.516-0.033h-6.539l-0.521,0.033l0.038-0.502
		v-12.3c0-6.698,5.423-12.126,12.112-12.126c2.85,0,5.47,0.994,7.537,2.634l0.149,0.45l0.141-0.441
		c0.216-0.234,0.427-0.45,0.666-0.661l0.44-0.108l-0.412-0.178c-1.786-2.001-2.893-4.631-2.893-7.514V5.664l-0.023-0.515
		l0.521,0.023h6.534l0.516-0.023L209.7,5.664V32.56c0,2.92,1.668,4.308,3.745,4.308c2.063,0,3.74-1.387,3.74-4.308V5.664
		l-0.028-0.515l0.525,0.023h6.543l0.511-0.023l-0.037,0.515V32.56c0,2.883-1.097,5.512-2.878,7.514l-0.417,0.178l0.454,0.108
		c0.226,0.211,0.44,0.426,0.656,0.661l0.146,0.441l0.136-0.45c2.081-1.641,4.697-2.634,7.542-2.634
		c6.698,0,12.117,5.428,12.117,12.126v12.3l0.037,0.502l-0.521-0.033h-6.538l-0.521,0.033l0.032-0.502v-12.3
		c0-3.59-2.063-5.301-4.607-5.301c-2.55,0-4.612,1.711-4.612,5.301v12.3l0.028,0.502l-0.511-0.033h-6.544l-0.516,0.033l0.038-0.502
		v-13.49c0-3.717-2.147-5.489-4.776-5.489C210.806,43.824,208.673,45.596,208.673,49.313"/>
	<path fill="#051922" d="M61.243,96.467h6.923v-0.74l-2.568-0.596V71.572h-7.111v0.812l2.756,0.764v7.95
		c-1.209-1.013-3.038-1.843-5.47-1.843c-4.317,0-7.504,3.797-7.504,9.065c0,5.391,2.911,8.531,7.537,8.531
		c2.259,0,4.13-0.877,5.438-2.063V96.467 M61.243,93.261c-0.961,0.76-2.142,1.406-3.938,1.406c-2.372,0-4.401-1.72-4.401-6.389
		c0-4.805,1.659-7.031,4.369-7.031c1.814,0,3.094,0.651,3.97,1.632V93.261z"/>
	<polyline fill="#051922" points="126.326,71.572 126.326,72.332 123.729,73.025 123.729,95.023 126.326,95.688 126.326,96.467 
		115.518,96.467 115.518,95.665 118.981,95.023 118.981,77.497 110.91,96.467 109.03,96.467 101.099,77.423 101.099,95.023 
		104.432,95.581 104.432,96.467 96.614,96.467 96.614,95.688 98.835,95.056 98.835,72.988 96.614,72.332 96.614,71.572 
		103.574,71.572 111.313,90.627 119.263,71.572 126.326,71.572 	"/>
	<path fill="#051922" d="M137.191,79.255c-4.898,0-9.3,3.408-9.3,8.799c0,5.23,4.439,8.798,9.3,8.798
		c4.889,0,9.328-3.567,9.328-8.798C146.52,82.663,142.08,79.255,137.191,79.255 M137.191,80.488c2.981,0,4.547,3.328,4.547,7.532
		c0,4.167-1.565,7.612-4.547,7.612c-2.943,0-4.551-3.445-4.551-7.612S134.248,80.488,137.191,80.488z"/>
	<path fill="#051922" d="M227.23,84.458v2.869l-3.872,0.191c-3.73,0.113-6.065,2.143-6.065,4.937c0,2.816,2.101,4.396,4.889,4.396
		c2.293,0,3.938-1.125,5.049-1.913v1.528h6.337v-0.74l-2.063-0.596V83.731c0-2.484-1.631-4.477-5.343-4.477
		c-3.793,0-6.159,1.078-7.495,1.655v3.933h1.884l0.628-3.281c0.437-0.179,1.612-0.586,3.487-0.432
		C226.921,81.317,227.188,82.888,227.23,84.458 M227.23,93.674c-0.886,0.576-1.646,1.152-3.028,1.152
		c-2.212,0.033-2.826-1.34-2.826-2.953c0-1.641,1.11-2.756,3.141-3.084l2.714-0.313V93.674z"/>
	<polyline fill="#051922" points="245,95.727 245,96.467 235.531,96.467 235.531,95.727 238.101,95.131 238.101,73.03 
		235.531,72.379 235.531,71.572 242.455,71.572 242.455,95.131 245,95.727 	"/>
	<path fill="#051922" d="M25.793,39.905l-3.708-0.722v-0.806h8.61v0.759l-2.639,0.769V54.97c0,6.263-3.417,8.808-10.406,8.808
		c-7.176,0-10.087-2.751-10.087-8.418V39.792L5,39.136v-0.759h11.01v0.844l-3.74,0.647V55.12c0,4.622,1.575,6.896,6.384,6.896
		c5.217,0,7.139-2.358,7.139-7.304V39.905"/>
	<path fill="#051922" d="M40.609,62.545v0.727h-9.29v-0.727l2.521-0.609v-14.23l-2.292-0.656v-0.788h6.656v2.597
		c0.764-0.647,3.173-2.789,6.267-2.789c3.216,0,4.856,1.791,4.856,4.931v10.894l2.447,0.623v0.755h-9.019v-0.755l2.254-0.581V51.497
		c0-1.65-0.501-3.099-2.559-3.099c-1.842,0-3.717,1.298-4.247,1.646v11.892L40.609,62.545"/>
	<polyline fill="#051922" points="60.212,61.936 62.738,62.545 62.738,63.271 53.289,63.271 53.289,62.545 55.857,61.936 
		55.857,47.705 53.561,47.049 53.561,46.261 60.212,46.261 60.212,61.936 	"/>
	<path fill="#051922" d="M60.446,40.402c0,1.308-1.144,2.372-2.522,2.372c-1.34,0-2.526-1.064-2.526-2.372
		c0-1.298,1.186-2.409,2.526-2.409C59.303,37.993,60.446,39.104,60.446,40.402"/>
	<polyline fill="#051922" points="135.331,61.936 137.862,62.545 137.862,63.271 128.403,63.271 128.403,62.545 130.972,61.936 
		130.972,47.705 128.68,47.049 128.68,46.261 135.331,46.261 135.331,61.936 	"/>
	<path fill="#051922" d="M135.551,40.402c0,1.308-1.144,2.372-2.512,2.372c-1.341,0-2.531-1.064-2.531-2.372
		c0-1.298,1.19-2.409,2.531-2.409C134.407,37.993,135.551,39.104,135.551,40.402"/>
	<polyline fill="#051922" points="64.121,47.442 62.893,46.945 62.893,46.261 71.157,46.261 71.157,46.945 68.513,47.602 
		72.31,57.956 76.069,47.518 73.772,46.945 73.772,46.261 79.435,46.261 79.435,46.945 78.057,47.602 71.579,63.543 70.172,63.543 
		64.121,47.442 	"/>
	<path fill="#051922" d="M84.474,53.714h11.245c-0.117-4.701-2.564-7.645-7.495-7.645c-4.861,0-8.451,4.2-8.451,8.793
		c0,5.311,3.473,8.789,8.489,8.789c4.284,0,6.497-1.679,7.8-2.635l-0.727-1.148c-0.994,0.619-2.991,1.96-6.271,1.763
		C85.776,61.401,84.126,57.956,84.474,53.714 M91.434,52.373h-6.769c0.384-2.906,1.528-5.053,3.558-5.053
		C90.52,47.32,91.275,50.001,91.434,52.373z"/>
	<path fill="#051922" d="M124.981,46.941l-0.38,4.171h-1.561l-0.384-2.831c-0.577-0.305-1.34-0.961-3.019-0.961
		c-1.383,0-2.452,0.731-2.452,2.217c0,1.767,1.95,2.456,3.9,3.337c1.875,0.797,4.936,1.95,4.936,4.969
		c0,3.436-2.831,5.808-6.229,5.808c-3.146,0-4.973-0.722-5.517-0.919l-0.3-4.617l1.603-0.159l0.918,3.141
		c0.464,0.342,1.729,1.336,3.253,1.303c2.18,0,3.211-1.148,3.211-2.798c0-1.95-2.714-2.789-4.509-3.628
		c-1.683-0.812-4.284-1.528-4.284-5.016c0-2.859,2.372-4.889,5.583-4.889C122.506,46.069,124.222,46.716,124.981,46.941"/>
	<polyline fill="#051922" points="166.834,40.636 165.18,38.189 159.335,42.783 160.291,44.152 166.834,40.636 	"/>
	<path fill="#051922" d="M156.658,53.714h11.24c-0.117-4.701-2.564-7.645-7.5-7.645c-4.852,0-8.446,4.2-8.446,8.793
		c0,5.311,3.482,8.789,8.498,8.789c4.274,0,6.501-1.679,7.795-2.635l-0.731-1.148c-0.993,0.619-2.977,1.96-6.271,1.763
		C157.956,61.401,156.316,57.956,156.658,53.714 M163.614,52.373h-6.764c0.379-2.906,1.527-5.053,3.548-5.053
		C162.7,47.32,163.464,50.001,163.614,52.373z"/>
	<path fill="#051922" d="M110.104,46.092c-2.447,0-4.209,1.969-5.203,4.176h-0.075v-4.007h-6.933v0.703l2.569,0.741v14.23
		l-2.569,0.609v0.727h10.636v-0.839l-3.703-0.604v-9.675c1.008-2.222,2.503-3.126,3.455-3.126c0.717,0,0.984,0.136,1.542,0.619
		c0.197,0.159,0.924,0.366,1.369,0.168c0.825-0.347,1.06-0.965,1.06-1.861C112.25,46.974,111.294,46.092,110.104,46.092"/>
	<path fill="#051922" d="M157.534,95.727v0.74h-9.295v-0.74l2.518-0.596V80.91l-2.287-0.661v-0.792h6.655v2.597
		c0.765-0.656,3.169-2.799,6.263-2.799c3.216,0,4.86,1.805,4.86,4.94v10.894l2.447,0.6v0.778h-9.023v-0.778l2.255-0.558V84.688
		c0-1.645-0.492-3.094-2.564-3.094c-1.828,0-3.707,1.294-4.237,1.641v11.896L157.534,95.727"/>
	<path fill="#051922" d="M195.708,79.283c-2.451,0-4.214,1.974-5.212,4.186h-0.075v-4.012h-6.923v0.703l2.563,0.75v14.221
		l-2.563,0.596v0.74h10.626v-0.834l-3.703-0.609v-9.67c1.013-2.231,2.513-3.136,3.464-3.136c0.713,0,0.979,0.136,1.528,0.628
		c0.206,0.154,0.938,0.365,1.364,0.159c0.839-0.36,1.068-0.961,1.068-1.86C197.846,80.169,196.898,79.283,195.708,79.283"/>
	<path fill="#051922" d="M150.621,61.373c-0.633,0.422-1.294,0.727-2.265,0.727c-1.527,0-2.024-1.111-2.024-3.638V47.747
		l4.359-0.642v-0.844h-4.359v-7.884h-1.43c-0.281,4.514-1.875,7.472-5.906,7.884h-0.661v0.844l3.633,0.642v10.945
		c0,3.464,0.839,4.959,4.097,4.959c2.339,0,4.224-0.872,4.987-1.599L150.621,61.373"/>
	<path fill="#051922" d="M181.506,94.568c-0.638,0.413-1.299,0.731-2.255,0.731c-1.542,0-2.029-1.12-2.029-3.642V80.942l4.359-0.646
		v-0.839h-4.359v-7.885h-1.425c-0.291,4.505-1.88,7.472-5.906,7.885h-0.666v0.839l3.628,0.646v10.94
		c0,3.478,0.844,4.969,4.097,4.969c2.339,0,4.214-0.877,4.982-1.604L181.506,94.568"/>
	<path fill="#051922" d="M74.138,86.909h11.245c-0.112-4.701-2.559-7.654-7.5-7.654c-4.847,0-8.447,4.214-8.447,8.799
		c0,5.319,3.478,8.798,8.484,8.798c4.284,0,6.506-1.683,7.8-2.64l-0.727-1.147c-0.994,0.609-2.977,1.959-6.267,1.762
		C75.441,94.597,73.796,91.151,74.138,86.909 M81.099,85.573H74.33c0.38-2.91,1.533-5.058,3.553-5.058
		C80.18,80.516,80.949,83.202,81.099,85.573z"/>
	<path fill="#051922" d="M202.945,86.905h11.24c-0.107-4.697-2.563-7.65-7.485-7.65c-4.861,0-8.456,4.214-8.456,8.799
		c0,5.319,3.473,8.798,8.488,8.798c4.28,0,6.497-1.683,7.805-2.64l-0.736-1.147c-0.988,0.609-2.976,1.959-6.267,1.762
		C204.244,94.597,202.599,91.146,202.945,86.905 M213.117,73.832l-1.641-2.447l-5.85,4.589l0.956,1.369L213.117,73.832z
		 M209.906,85.573h-6.764c0.379-2.91,1.523-5.058,3.558-5.058C208.987,80.516,209.751,83.202,209.906,85.573z"/>
</g>
</svg>
